<?xml version="1.0" encoding="UTF-8" standalone="no"?>
<svg
   xmlns:dc="http://purl.org/dc/elements/1.1/"
   xmlns:cc="http://creativecommons.org/ns#"
   xmlns:rdf="http://www.w3.org/1999/02/22-rdf-syntax-ns#"
   xmlns:svg="http://www.w3.org/2000/svg"
   xmlns="http://www.w3.org/2000/svg"
   id="svg8"
   version="1.1"
   viewBox="0 0 210 297"
   height="297mm"
   width="210mm">
  <defs
     id="defs2" />
  <metadata
     id="metadata5">
    <rdf:RDF>
      <cc:Work
         rdf:about="">
        <dc:format>image/svg+xml</dc:format>
        <dc:type
           rdf:resource="http://purl.org/dc/dcmitype/StillImage" />
        <dc:title></dc:title>
      </cc:Work>
    </rdf:RDF>
  </metadata>
  <g
     id="layer1">
    <path
       id="path21"
       d="m 129.33365,229.33451 0.0149,-52.82764 7.76111,-4.73298 c 4.26862,-2.60315 7.86458,-4.77428 7.99102,-4.82477 0.29236,-0.11675 5.13922,8.10034 8.45932,14.34138 3.14108,5.90451 6.6996,13.44273 9.33045,19.76522 2.17916,5.23698 2.72083,6.90897 3.85361,11.89503 0.65106,2.86567 0.73411,3.06359 0.615,1.46557 -0.0757,-1.01615 -0.0605,-1.77024 0.034,-1.67577 0.0944,0.0944 1.00011,2.70071 2.01252,5.79166 1.01242,3.09097 1.84868,5.47793 1.85837,5.30439 0.009,-0.17354 -0.41342,-2.65836 -0.94025,-5.5218 -1.12677,-6.12436 -2.96055,-13.7869 -4.5685,-19.08966 -0.63147,-2.08251 -1.62597,-6.13991 -2.21002,-9.01645 -1.0259,-5.05293 -2.5381,-10.16688 -3.94273,-13.33364 -0.37204,-0.83875 -0.71978,-1.4777 -0.77278,-1.41989 -0.053,0.0578 0.24635,1.72264 0.6652,3.69965 0.41885,1.97701 0.71247,3.64363 0.65247,3.70363 -0.0599,0.0599 -0.43967,-0.70561 -0.84374,-1.70135 -1.12523,-2.77299 -5.7276,-12.249 -7.23866,-14.90402 -0.85141,-1.496 -1.24896,-2.50891 -1.0815,-2.75566 0.14564,-0.21458 3.88551,-2.60763 8.31085,-5.31788 4.42532,-2.71025 8.09188,-4.97109 8.14787,-5.02411 0.19765,-0.18706 3.85414,-23.98606 3.76995,-24.53734 -0.069,-0.45162 -2.66245,0.85587 -13.49548,6.80368 -7.37555,4.0495 -14.63794,8.03185 -16.13863,8.84966 l -2.72853,1.48694 -2.15925,-2.76882 C 126.79931,130.30635 113.06811,117.13706 98.279233,106.15038 93.418538,102.53937 81.433716,94.494981 82.620111,95.639751 c 0.08682,0.0837 1.932627,1.69671 4.101907,3.58437 8.308415,7.229879 19.453922,18.030369 25.955772,25.152279 l 2.59156,2.83871 -2.67788,-1.47996 c -3.09929,-1.71286 -7.93496,-4.02741 -8.09012,-3.87224 -0.0585,0.0585 1.20648,0.91843 2.81081,1.91122 3.6665,2.2689 7.60865,5.08162 11.11032,7.92724 2.71526,2.20653 6.33106,6.33581 11.9402,13.63581 l 2.71913,3.53877 -0.85603,0.50246 c -0.47083,0.27633 -3.12787,1.73901 -5.90455,3.25039 l -5.0485,2.74794 -0.0882,20.81984 -0.0882,20.81982 -6.57463,4.02304 c -3.61605,2.21266 -6.72879,4.02303 -6.91722,4.02303 -0.18843,0 -3.29564,-1.82643 -6.90493,-4.05874 l -6.562337,-4.05874 -0.08907,-20.78937 -0.08907,-20.78938 -7.168133,-3.91683 c -3.942474,-2.15425 -15.171085,-8.3029 -24.952465,-13.66366 -9.781379,-5.36075 -17.838174,-9.69297 -17.904002,-9.62715 -0.116395,0.11639 3.558038,24.02784 3.796909,24.70872 0.06571,0.18746 2.937573,2.07323 6.381783,4.1906 3.44421,2.11736 12.012768,7.38188 19.041241,11.69894 l 12.779023,7.84918 0.07978,52.56529 c 0.0508,33.48241 -0.03029,52.56531 -0.223546,52.56531 -0.276483,0 -13.885707,-11.2889 -49.979499,-41.45819 -7.263337,-6.07109 -13.266518,-11.19592 -13.340409,-11.38849 -0.07393,-0.19257 0.417873,-1.55033 1.092826,-3.01726 5.256174,-11.42385 8.690259,-23.95931 10.19583,-37.21789 0.60978,-5.36991 0.518036,-19.51066 -0.164788,-25.40027 -1.542529,-13.30483 -4.541615,-25.53801 -9.533553,-38.88702 l -2.034568,-5.44067 0.313369,-4.65635 C 22.887544,106.11773 24.04484,99.464491 26.191187,92.123791 30.3485,77.904931 37.38519,64.290526 46.506273,52.818476 50.064909,48.342591 59.167257,39.298926 63.214986,36.217488 73.4877,28.397111 83.859708,23.48137 94.768143,21.263094 c 27.645577,-5.621851 56.275727,7.505463 76.734887,35.183995 12.53996,16.9649 20.59947,38.998972 21.4335,58.597551 l 0.18516,4.351 -1.26365,3.15531 c -4.50801,11.25636 -8.19271,25.3954 -9.90859,38.02156 -0.61835,4.55013 -0.70773,6.57822 -0.70912,16.09212 -0.001,8.72488 0.10923,11.66878 0.55687,14.82997 1.70616,12.04948 4.82443,23.06502 9.42328,33.28859 0.85872,1.90897 1.62619,3.61695 1.70551,3.79553 0.19177,0.43168 -25.73959,22.06165 -26.03427,21.71584 -0.12601,-0.14786 -0.76312,-2.1147 -1.41579,-4.37075 -1.74894,-6.04544 -4.42029,-12.19095 -8.70945,-20.03626 -1.37483,-2.51472 -1.26274,-2.4635 0.88128,0.4027 0.74304,0.99331 1.40606,1.80602 1.47339,1.80602 0.26241,0 -3.88153,-9.25205 -6.28897,-14.04116 -2.48749,-4.94837 -7.76755,-14.43107 -7.93958,-14.25902 -0.0479,0.048 1.16455,3.20484 2.69444,7.01533 4.81179,11.98476 7.67403,20.42987 10.15476,29.96197 0.67746,2.60314 1.14376,4.02303 1.0362,3.15532 -0.35617,-2.87327 0.13265,-1.32956 1.149,3.62861 0.57614,2.81069 1.07595,6.37218 1.17514,8.37396 l 0.17262,3.48321 -15.26801,12.73526 c -8.3974,7.0044 -15.58747,13.02262 -15.97795,13.37384 l -0.70995,0.63858 z"
       style="fill:#F1EC40;stroke-width:0.31553158" />
  </g>
</svg>
